<svg xmlns="http://www.w3.org/2000/svg" style="max-width:373px" class="w-full" viewBox="0 0 373 340">
    <defs>
        <linearGradient id="a" x1="100%" x2="0%" y1="50%" y2="50%">
            <stop offset="0%" stop-color="#FFF" stop-opacity="0"/>
            <stop offset="100%" stop-color="#7ED7FF"/>
        </linearGradient>
    </defs>
    <g fill="none" fill-rule="evenodd">
        <g>
            <path fill="#DDE4EB"
                  d="M310 274.5c0 7.456 6.044 13.5 13.5 13.5h36c7.456 0 13.5 6.044 13.5 13.5s-6.044 13.5-13.5 13.5h-117c-7.456 0-13.5-6.044-13.5-13.5s6.044-13.5 13.5-13.5 13.5-6.044 13.5-13.5-6.044-13.5-13.5-13.5h-54c-7.456 0-13.5-6.044-13.5-13.5s6.044-13.5 13.5-13.5h135c7.456 0 13.5 6.044 13.5 13.5s-6.044 13.5-13.5 13.5-13.5 6.044-13.5 13.5zM245.677 110.6c0-8.726-7.073-15.8-15.8-15.8h-91.883c-8.727 0-15.8 7.074-15.8 15.8s7.073 15.8 15.8 15.8h9.56c8.727 0 15.8 7.074 15.8 15.8s-7.073 15.8-15.8 15.8H45.382c-8.726 0-15.8-7.074-15.8-15.8v-.365c0-8.524 6.91-15.435 15.435-15.435s15.436-6.91 15.436-15.435v-.365c0-8.726-7.074-15.8-15.8-15.8H24.8C16.074 94.8 9 87.726 9 79s7.074-15.8 15.8-15.8h71.303c8.726 0 15.8-7.074 15.8-15.8s-7.074-15.8-15.8-15.8h-9.561c-8.726 0-15.8-7.074-15.8-15.8S77.816 0 86.542 0h163.916c8.726 0 15.8 7.074 15.8 15.8s-7.074 15.8-15.8 15.8h-30.142c-8.726 0-15.8 7.074-15.8 15.8s7.074 15.8 15.8 15.8H312.2c8.726 0 15.8 7.074 15.8 15.8s-7.074 15.8-15.8 15.8h-9.561c-8.726 0-15.8 7.074-15.8 15.8v.365c0 8.524 6.91 15.435 15.435 15.435s15.436 6.91 15.436 15.435v.365c0 8.726-7.074 15.8-15.8 15.8h-81.594c-8.726 0-15.8-7.074-15.8-15.8s7.074-15.8 15.8-15.8h9.561c8.727 0 15.8-7.074 15.8-15.8z"/>
            <circle cx="261" cy="20" r="5" fill="#9AC2F0"/>
            <path stroke="#031836" stroke-linecap="round" stroke-width="2" d="M258 27a5 5 0 1 0-5-5"/>
            <circle cx="57" cy="138" r="5" fill="#9AC2F0"/>
            <path stroke="#031836" stroke-linecap="round" stroke-width="2" d="M54 145a5 5 0 1 0-5-5"/>
            <path fill="#031836"
                  d="M350.458 188h.084a1 1 0 0 1 1 1v6a1 1 0 0 1-1 1h-.084a1 1 0 0 1-1-1v-6a1 1 0 0 1 1-1zm12.375 11.958v.084a1 1 0 0 1-1 1h-6a1 1 0 0 1-1-1v-.084a1 1 0 0 1 1-1h6a1 1 0 0 1 1 1zM350.542 212h-.084a1 1 0 0 1-1-1v-6a1 1 0 0 1 1-1h.084a1 1 0 0 1 1 1v6a1 1 0 0 1-1 1zm-12.375-11.958v-.084a1 1 0 0 1 1-1h6a1 1 0 0 1 1 1v.084a1 1 0 0 1-1 1h-6a1 1 0 0 1-1-1zM12.458 169h.084a1 1 0 0 1 1 1v6a1 1 0 0 1-1 1h-.084a1 1 0 0 1-1-1v-6a1 1 0 0 1 1-1zm12.375 11.958v.084a1 1 0 0 1-1 1h-6a1 1 0 0 1-1-1v-.084a1 1 0 0 1 1-1h6a1 1 0 0 1 1 1zM12.542 193h-.084a1 1 0 0 1-1-1v-6a1 1 0 0 1 1-1h.084a1 1 0 0 1 1 1v6a1 1 0 0 1-1 1zM.167 181.042v-.084a1 1 0 0 1 1-1h6a1 1 0 0 1 1 1v.084a1 1 0 0 1-1 1h-6a1 1 0 0 1-1-1zM167.458 10h.084a1 1 0 0 1 1 1v6a1 1 0 0 1-1 1h-.084a1 1 0 0 1-1-1v-6a1 1 0 0 1 1-1zm12.375 11.958v.084a1 1 0 0 1-1 1h-6a1 1 0 0 1-1-1v-.084a1 1 0 0 1 1-1h6a1 1 0 0 1 1 1zM167.542 34h-.084a1 1 0 0 1-1-1v-6a1 1 0 0 1 1-1h.084a1 1 0 0 1 1 1v6a1 1 0 0 1-1 1zm-12.375-11.958v-.084a1 1 0 0 1 1-1h6a1 1 0 0 1 1 1v.084a1 1 0 0 1-1 1h-6a1 1 0 0 1-1-1z"/>
            <circle cx="301.5" cy="135.5" r="3.5" fill="#031836"/>
            <circle cx="191.5" cy="333.5" r="3.5" fill="#031836"/>
        </g>
        <g transform="translate(63 21)">
            <g stroke-width="2">
                <path fill="#FFF" fill-rule="nonzero" stroke="#0D2B3E"
                      d="M31.552 116.526c-4.708-5.26-13.794-18.924-6.852-24.031 6.943-5.107 13.482 6.036 21.672 11.71 15.463 10.714 30.495 13.39 50.115 9.93 7.134-1.257 13.83-3.8 19.853-7.48 6.06-3.7 13.983-1.845 17.698 4.146 3.716 5.99 1.816 13.847-4.243 17.548-8.78 5.364-18.537 9.068-28.882 10.892-28.52 5.03-50.539-1.69-69.361-22.715z"/>
                <path stroke="#7ED7FF" d="M34.985 119.582l13.847-13.612"/>
            </g>
            <g stroke-width="2">
                <path fill="#FFF" fill-rule="nonzero" stroke="#0D2B3E"
                      d="M100.777 173.761l19.564 23.998a41.556 41.556 0 0 0-10.168 12.161c-7.512 13.552-6.847 29.91 1.351 42.78l11.05 12.011-34.714 30.682-2.442-26.153c-14.229-22.337-15.385-50.795-2.336-74.337a72.359 72.359 0 0 1 17.695-21.142z"/>
                <path stroke="#0D2B3E" d="M83.505 264.395l26.114-14.109"/>
                <path stroke="#7ED7FF" d="M80.273 257.812l26.114-14.109"/>
            </g>
            <g stroke-width="2">
                <path fill="#FFF" fill-rule="nonzero" stroke="#0D2B3E"
                      d="M158.096 166.002l19.619 23.945a47.758 47.758 0 0 0-16.359 46.857c2.47 11.624 9.023 21.65 18.38 28.546l15.27 9.949-26.74 41.308-6.806-26.31c-15.406-11.356-26.247-27.945-30.313-47.072a78.739 78.739 0 0 1 26.95-77.223z"/>
                <path stroke="#7ED7FF" d="M148.672 280.008l20.938-24.636"/>
                <path stroke="#0D2B3E" d="M154.25 283.425l19.685-23.184"/>
            </g>
            <path fill="#E5F7FF" d="M177.917 90.313l12.819 1.122L180.5 208.433l-12.82-1.122z"/>
            <path stroke="#7ED7FF" stroke-width="2"
                  d="M112.227 84.858l59.54 5.21 3.97-45.38c1.439-16.441-10.723-30.936-27.165-32.374-16.441-1.439-30.936 10.724-32.374 27.165l-3.97 45.38z"/>
            <path fill="#FFF" stroke="#0D2B3E" stroke-width="2"
                  d="M122.906 84.205l2.7-30.856c.87-9.941 9.61-17.297 19.522-16.43 9.911.867 17.242 9.629 16.372 19.57l-2.7 30.856"/>
            <path stroke="#0D2B3E" stroke-width="2"
                  d="M191.047 91.17l-89.024-7.788-10.287 117.576 89.024 7.789L191.047 91.17z"/>
            <path fill="#FFF" stroke="#0D2B3E" stroke-width="2"
                  d="M102.023 83.382L91.736 200.958l76.205 6.667L178.228 90.05l-76.205-6.667z"/>
            <path fill="#FFF" stroke="#0D2B3E" stroke-width="2"
                  d="M114.528 105.188l-6.338 5.334-4.377 50.02 49.868 4.362 6.338-5.334 4.376-50.02-49.867-4.362z"/>
            <path fill="#FFF" stroke="#0D2B3E" stroke-width="2"
                  d="M108.138 111.106l49.285 4.312-4.325 49.435-49.285-4.312z"/>
            <path stroke="#4A90E2" stroke-width="2"
                  d="M114.096 119.41l10.958.958-.958 10.958-10.958-.959z"/>
            <path stroke="#7ED7FF" stroke-width="2"
                  d="M112.528 137.34l4.98.436-.435 4.981-4.981-.435zM124.482 138.387l4.98.435-.435 4.981-4.98-.435zM142.986 121.937l4.98.436-2.962 33.87-4.981-.436zM132.028 120.978l3.985.349-.175 1.992-3.985-.349z"/>
            <g stroke-width="2">
                <path fill="#FFF" fill-rule="nonzero" stroke="#0D2B3E"
                      d="M224.468 209.254c-2.549 6.583-10.599 20.882-18.301 17.015-7.702-3.868-.743-14.753.595-24.626 2.526-18.642-1.913-33.25-13.903-49.161-4.36-5.786-9.664-10.597-15.678-14.294-6.049-3.718-7.993-11.62-4.342-17.65 3.65-6.03 11.514-7.905 17.562-4.187 8.765 5.388 16.495 12.4 22.817 20.79 17.429 23.128 21.438 45.797 11.25 72.113z"/>
                <path stroke="#7ED7FF" d="M207.711 198.767l19.487 4.499"/>
            </g>
            <path fill="#4A90E2" stroke="#0D2B3E" stroke-width="2"
                  d="M7.574 187.178l76.386 19.097 40.177-13.393a5 5 0 0 0-.369-9.594L65.453 168.71a5 5 0 0 0-2.794.108L7.574 187.178z"/>
            <path fill="url(#a)"
                  d="M8.364 130.079L124 97.315V194l-40 13.5-80-20.185v-51.463a6 6 0 0 1 4.364-5.773z"
                  opacity=".349"/>
            <path fill="#4A90E2" stroke="#0D2B3E" stroke-width="2"
                  d="M5 186.535l78 19.5V152a5 5 0 0 0-3.787-4.85l-68-17A5 5 0 0 0 5 135v51.535z"/>
            <circle cx="44" cy="168" r="6" fill="#FFF"/>
        </g>
        <g transform="rotate(15 11.893 1172.172)">
            <rect width="58" height="48" x="4" fill="#FFF" rx="4"/>
            <rect width="58" height="48" y="4" stroke="#4A90E2" stroke-width="2" rx="4"/>
            <path stroke="#4A90E2" stroke-width="2"
                  d="M27 12h24v14H27zM27 32h10v10H27zM42 32h10M6 12h8M6 18h8M6 24h8M6 30h8M6 36h8M42 36h10M42 40h10M42 44h10M19 5v46"/>
        </g>
        <g stroke="#4A90E2" stroke-width="2" transform="rotate(-15 71.692 -113.915)">
            <g transform="translate(18)">
                <circle cx="20.083" cy="20.773" r="19" fill="#FFF"/>
                <path d="M17.083 14.641v12.263l9.197-6.131-9.197-6.132z"/>
            </g>
            <g fill="#FFF">
                <path d="M37.032 31.352h34v38h-34z"/>
                <path d="M43.032 37.352h22v18h-22z"/>
            </g>
            <circle cx="20.022" cy="48.235" r="19" fill="#FFF"/>
            <g transform="translate(10 40)">
                <circle cx="3.022" cy="13.235" r="3"/>
                <circle cx="15.022" cy="13.235" r="3"/>
                <path d="M6.022 13.235V.242l12-.007v13"/>
            </g>
        </g>
        <g stroke="#4A90E2" stroke-width="2" transform="rotate(-45 473.155 -212.668)">
            <path fill="#FFF" d="M18.88 43.017v15.986a3.47 3.47 0 0 0 6.94 0V43.017h-6.94z"/>
            <circle cx="22.35" cy="22.35" r="21.35" fill="#FFF"/>
            <circle cx="22.35" cy="22.35" r="15.986" fill="#FFF"/>
            <path d="M33.078 22.35c0-5.925-4.803-10.728-10.728-10.728"/>
        </g>
        <g stroke="#4A90E2" stroke-width="2">
            <g fill="#FFF">
                <path d="M48.211 241.741l26.402-7.074 9.096 33.945-26.402 7.074z"/>
                <path d="M35.967 252.713l26.402-7.075 9.095 33.946-26.402 7.074z"/>
                <path d="M44.973 257.99l26.402-7.074 9.096 33.945-26.402 7.074z"/>
            </g>
            <path fill="#FFF" d="M35.057 279.112l19.961 20.807 36.964-21.34-8.039-27.691-48.886 28.224z"/>
            <path d="M56.139 276.178a9 9 0 0 0 15.588-9"/>
        </g>
    </g>
</svg>
