<?xml version="1.0" encoding="UTF-8"?>
<svg width="156px" height="30px" viewBox="0 0 156 30" version="1.1" xmlns="http://www.w3.org/2000/svg" xmlns:xlink="http://www.w3.org/1999/xlink">
    <!-- Generator: Sketch 52.2 (67145) - http://www.bohemiancoding.com/sketch -->
    <title>logo</title>
    <desc>Created with Sketch.</desc>
    <g id="Page-1" stroke="none" stroke-width="1" fill="none" fill-rule="evenodd">
        <g id="logo" fill="#252D37" fill-rule="nonzero">
            <path d="M50.4820582,22.34 L42.0000002,22.34 L42.0000002,9 L44.8539632,9 L44.8539632,19.84 L50.4820582,19.84 L50.4820582,22.34 Z M44.4820582,22.34 L36.0000002,22.34 L36.0000002,9 L38.8539632,9 L38.8539632,19.84 L44.4820582,19.84 L44.4820582,22.34 Z M56.310881,21.02 C57.12915,21.02 57.927461,20.74 58.346575,20.18 L58.346575,18.98 C57.927461,18.42 57.12915,18.12 56.310881,18.12 C55.312992,18.12 54.494723,18.66 54.494723,19.58 C54.494723,20.5 55.312992,21.02 56.310881,21.02 Z M65.930532,22.5 L63.395893,22.5 L63.395893,12.84 L65.930532,12.84 L65.930532,14.14 C66.629054,13.3 67.806563,12.6 69.00403,12.6 L69.00403,15.08 C68.82441,15.04 68.604874,15.02 68.305508,15.02 C67.467281,15.02 66.349645,15.5 65.930532,16.12 L65.930532,22.5 Z M74.332758,21.02 C75.151027,21.02 75.949338,20.74 76.368451,20.18 L76.368451,18.98 C75.949338,18.42 75.151027,18.12 74.332758,18.12 C73.334869,18.12 72.5166,18.66 72.5166,19.58 C72.5166,20.5 73.334869,21.02 74.332758,21.02 Z M86.646709,22.5 L83.912493,22.5 L80.040683,12.84 L82.754941,12.84 L85.269622,19.56 L87.80426,12.84 L90.518519,12.84 L86.646709,22.5 Z M96.186528,22.74 C93.252735,22.74 91.037421,20.76 91.037421,17.66 C91.037421,14.86 93.11303,12.6 96.026866,12.6 C98.920745,12.6 100.856649,14.76 100.856649,17.9 L100.856649,18.5 L93.691806,18.5 C93.871426,19.68 94.829399,20.66 96.465937,20.66 C97.284206,20.66 98.401842,20.32 99.020533,19.72 L100.158127,21.4 C99.200154,22.28 97.683362,22.74 96.186528,22.74 Z M98.4218,16.74 C98.341969,15.82 97.70332,14.68 96.026866,14.68 C94.450201,14.68 93.771637,15.78 93.671848,16.74 L98.4218,16.74 Z M105.227404,22.5 L102.692765,22.5 L102.692765,9.16 L105.227404,9.16 L105.227404,22.5 Z M124.016696,22.34 L122.420073,22.34 L114.656496,11.7 L114.656496,22.34 L113,22.34 L113,9 L114.696412,9 L122.3602,19.42 L122.3602,9 L124.016696,9 L124.016696,22.34 Z M119.916332,22.34 L118.319709,22.34 L110.556132,11.7 L110.556132,22.34 L108.899636,22.34 L108.899636,9 L110.596048,9 L118.259836,19.42 L118.259836,9 L119.916332,9 L119.916332,22.34 Z M131.491844,22.74 C128.55805,22.74 126.721934,20.46 126.721934,17.66 C126.721934,14.86 128.55805,12.6 131.491844,12.6 C134.425638,12.6 136.261754,14.86 136.261754,17.66 C136.261754,20.46 134.425638,22.74 131.491844,22.74 Z M131.491844,21.4 C133.547496,21.4 134.685089,19.64 134.685089,17.66 C134.685089,15.7 133.547496,13.94 131.491844,13.94 C129.436193,13.94 128.298599,15.7 128.298599,17.66 C128.298599,19.64 129.436193,21.4 131.491844,21.4 Z M142.907695,22.5 L141.271157,22.5 L137.259643,12.84 L138.896181,12.84 L142.089426,20.76 L145.302629,12.84 L146.919209,12.84 L142.907695,22.5 Z M156,22.5 L154.503166,22.5 L154.503166,21.4 C153.724813,22.28 152.607177,22.74 151.309921,22.74 C149.693341,22.74 147.957014,21.64 147.957014,19.54 C147.957014,17.36 149.673383,16.36 151.309921,16.36 C152.627135,16.36 153.724813,16.78 154.503166,17.66 L154.503166,15.92 C154.503166,14.64 153.465362,13.9 152.068317,13.9 C150.910766,13.9 149.97275,14.3 149.114565,15.24 L148.416043,14.2 C149.453848,13.12 150.69123,12.6 152.267895,12.6 C154.323546,12.6 156,13.52 156,15.86 L156,22.5 Z M151.868739,21.66 C152.906544,21.66 153.924391,21.26 154.503166,20.46 L154.503166,18.62 C153.924391,17.84 152.906544,17.44 151.868739,17.44 C150.451737,17.44 149.473805,18.32 149.473805,19.54 C149.473805,20.78 150.451737,21.66 151.868739,21.66 Z M25.095961,25.5692875 C22.351159,28.3056732 18.547772,30 14.344656,30 C9.665891,30 5.482446,27.9004958 2.703123,24.6012031 C8.655787,29.5178715 17.522513,29.2101806 23.110447,23.6781287 C26.875835,19.9503968 26.875835,13.9065493 23.110447,10.1788174 C19.345059,6.4510855 13.240159,6.4510855 9.474771,10.1788174 C7.861033,11.7764168 7.861033,14.3666371 9.474771,15.9642365 C11.088509,17.5618359 13.704895,17.5618359 15.318632,15.9642365 C15.856545,15.4317034 16.728674,15.4317034 17.266586,15.9642365 C17.804499,16.4967696 17.804499,17.3601764 17.266586,17.8927096 C14.577023,20.5553752 10.21638,20.5553752 7.526817,17.8927096 C4.837255,15.2300439 4.837255,10.91301 7.526817,8.2503444 C12.368031,3.4575462 20.217188,3.4575462 25.058401,8.2503444 C29.887066,13.03072 29.899582,20.7735418 25.095948,25.5692742 L25.095961,25.5692875 Z M25.98619,5.3987986 C20.033524,0.4821285 11.166798,0.7898194 5.578864,6.3218713 C1.813476,10.0496032 1.813476,16.0934507 5.578864,19.8211826 C9.344252,23.5489145 15.449152,23.5489145 19.21454,19.8211826 C20.828278,18.2235832 20.828278,15.6333629 19.21454,14.0357635 C17.600802,12.4381641 14.984416,12.4381641 13.370679,14.0357635 C12.832766,14.5682966 11.960637,14.5682966 11.422725,14.0357635 C10.884812,13.5032304 10.884812,12.6398236 11.422725,12.1072904 C14.112288,9.4446248 18.472931,9.4446248 21.162494,12.1072904 C23.852057,14.7699561 23.852057,19.08699 21.162494,21.7496556 C16.32128,26.5424538 8.472123,26.5424538 3.63091,21.7496556 C-1.204029,16.9630688 -1.210295,9.2063323 3.612112,4.4120471 C6.355472,1.6866207 10.151108,0 14.344656,0 C19.02342,0 23.206865,2.0995042 25.986188,5.3987969 L25.98619,5.3987986 Z" id="Combined-Shape2"></path>
        </g>
    </g>
</svg>