<svg xmlns="http://www.w3.org/2000/svg" width="48" viewBox="0 0 48 48">
    <path fill="#AAF1FF"
          d="M7 4h34a3 3 0 0 1 3 3v6a3 3 0 0 1-3 3H7a3 3 0 0 1-3-3V7a3 3 0 0 1 3-3zm0 2a1 1 0 0 0-1 1v6a1 1 0 0 0 1 1h34a1 1 0 0 0 1-1V7a1 1 0 0 0-1-1H7zm0 12h34a3 3 0 0 1 3 3v6a3 3 0 0 1-3 3H7a3 3 0 0 1-3-3v-6a3 3 0 0 1 3-3zm0 2a1 1 0 0 0-1 1v6a1 1 0 0 0 1 1h34a1 1 0 0 0 1-1v-6a1 1 0 0 0-1-1H7zm0 12h34a3 3 0 0 1 3 3v6a3 3 0 0 1-3 3H7a3 3 0 0 1-3-3v-6a3 3 0 0 1 3-3zm0 2a1 1 0 0 0-1 1v6a1 1 0 0 0 1 1h34a1 1 0 0 0 1-1v-6a1 1 0 0 0-1-1H7zm8-25.5a1.5 1.5 0 1 1 0 3 1.5 1.5 0 0 1 0-3zM34 9h4a1 1 0 0 1 0 2h-4a1 1 0 0 1 0-2zM15 22.5a1.5 1.5 0 1 1 0 3 1.5 1.5 0 0 1 0-3zm19 .5h4a1 1 0 0 1 0 2h-4a1 1 0 0 1 0-2zM15 36.5a1.5 1.5 0 1 1 0 3 1.5 1.5 0 0 1 0-3zm-5-28a1.5 1.5 0 1 1 0 3 1.5 1.5 0 0 1 0-3zm0 14a1.5 1.5 0 1 1 0 3 1.5 1.5 0 0 1 0-3zm0 14a1.5 1.5 0 1 1 0 3 1.5 1.5 0 0 1 0-3zm24 .5h4a1 1 0 0 1 0 2h-4a1 1 0 0 1 0-2z"/>
</svg>